<?xml version="1.0" encoding="UTF-8"?><svg id="a" xmlns="http://www.w3.org/2000/svg" viewBox="0 0 78.13 78.13"><defs><style>.b{fill:#ec6164;stroke:#fff;stroke-miterlimit:10;}</style></defs><path class="b" d="M53.89,49.13l-.07-10.42c-.01-.6,.48-1.09,1.08-1.09h3.56l-.08-.19V16.74c0-2.49-2.01-4.5-4.5-4.5h-3.88c.01,.12,.03,.24,.03,.36,0,4.7-5.37,8.51-11.99,8.51s-11.99-3.81-11.99-8.51v-.05h-4.91c-2.13,.01-3.86,2.12-3.86,4.72v20.58h4.51c.55,0,1,.45,1,1v10.54c0,.27-.11,.52-.3,.71-.6,.57-2.06,1.85-4.07,2.88l.06,.66c1.18-.66,2.53-1.04,3.98-1.04h31.15c1.35,0,2.62,.33,3.74,.91l.59-.71c-1.23-.68-2.49-1.62-3.74-2.91-.2-.2-.31-.48-.31-.76Z"/><path class="b" d="M22.46,52.6c-1.45,0-2.8,.38-3.98,1.04-2.5,1.4-4.19,4.06-4.19,7.13v5.1c0,4.52,3.66,8.17,8.17,8.17h31.15c4.51,0,8.17-3.65,8.17-8.17v-5.1c0-3.17-1.8-5.91-4.43-7.26-1.12-.58-2.39-.91-3.74-.91H22.46Z"/><path class="b" d="M72.49,37.62h-17.59c-.6,0-1.09,.49-1.08,1.09l.07,10.42c0,.28,.11,.56,.31,.76,1.25,1.29,2.51,2.23,3.74,2.91,7.28,4.02,13.79-1.46,15.3-2.9,.22-.21,.34-.49,.34-.79v-10.4c0-.6-.49-1.09-1.09-1.09Z"/><path class="b" d="M22.79,49.39v-10.54c0-.55-.45-1-1-1H4.02c-.55,0-1,.45-.99,1.01l.07,10.54c0,.26,.11,.51,.29,.69,5.67,5.86,11.31,4.79,15.03,2.89,2.01-1.03,3.47-2.31,4.07-2.88,.19-.19,.3-.44,.3-.71Z"/><path class="b" d="M38.04,21.11c6.62,0,11.99-3.81,11.99-8.51,0-.12-.02-.24-.03-.36-.27-4.54-5.51-8.15-11.96-8.15s-11.95,3.78-11.99,8.46v.05c0,4.7,5.37,8.51,11.99,8.51Z"/></svg>